<?xml version="1.0" standalone="no"?>
<!DOCTYPE svg PUBLIC "-//W3C//DTD SVG 20010904//EN"
 "http://www.w3.org/TR/2001/REC-SVG-20010904/DTD/svg10.dtd">
<svg version="1.0" xmlns="http://www.w3.org/2000/svg"
 width="1024.000000pt" height="1024.000000pt" viewBox="0 0 1024.000000 1024.000000"
 preserveAspectRatio="xMidYMid meet">
<metadata>
Created by potrace 1.14, written by Peter Selinger 2001-2017
</metadata>
<g transform="translate(0.000000,1024.000000) scale(0.100000,-0.100000)"
fill="#000000" stroke="none">
<path d="M800 9252 c-7 -3 -10 -1376 -10 -4091 l0 -4088 628 2 c637 1 682 4
752 40 15 8 30 11 34 8 3 -4 6 -1 6 5 0 6 8 13 19 17 22 7 150 125 136 125 -6
0 -3 6 5 13 19 15 37 55 61 132 18 58 19 181 19 3750 0 3571 -1 3692 -19 3750
-36 117 -96 196 -194 259 -53 33 -137 66 -192 73 -36 5 -1230 10 -1245 5z"/>
<path d="M3490 9249 c-65 -8 -110 -31 -151 -76 -38 -42 -65 -104 -56 -127 3
-8 3 -17 -1 -20 -9 -9 -9 -178 0 -198 5 -10 3 -18 -5 -21 -9 -3 -9 -7 2 -20 7
-10 10 -17 5 -17 -11 0 -10 -182 1 -200 5 -7 4 -11 -1 -7 -10 6 -11 -204 -1
-221 4 -5 1 -12 -5 -15 -10 -3 -10 -7 1 -20 7 -10 10 -17 5 -17 -11 0 -10
-182 1 -200 5 -7 4 -11 -1 -7 -10 6 -11 -204 -1 -221 4 -5 1 -12 -5 -15 -10
-3 -10 -7 1 -20 7 -10 10 -17 5 -17 -11 0 -11 -221 0 -238 4 -7 4 -12 -1 -12
-10 0 -10 -161 0 -177 4 -6 1 -13 -5 -16 -10 -3 -10 -7 1 -20 7 -10 10 -17 5
-17 -11 0 -10 -182 1 -200 5 -7 4 -11 -1 -7 -11 6 -10 -175 0 -192 4 -6 4 -11
-1 -11 -10 0 -10 -161 0 -177 4 -6 1 -13 -5 -16 -10 -3 -10 -7 1 -20 7 -10 10
-17 5 -17 -11 0 -10 -182 1 -200 5 -7 4 -11 -1 -7 -5 3 -9 -41 -9 -104 0 -60
4 -109 8 -109 5 0 5 -5 1 -11 -9 -15 -11 -309 -2 -309 4 0 5 -7 1 -16 -9 -24
-10 -286 -1 -306 5 -10 3 -18 -5 -21 -9 -3 -9 -7 2 -20 7 -10 10 -17 5 -17
-11 0 -10 -182 1 -200 5 -7 4 -11 -1 -7 -10 6 -11 -204 -1 -221 4 -5 1 -12 -5
-15 -10 -3 -10 -7 1 -20 7 -10 10 -17 5 -17 -11 0 -10 -182 1 -200 5 -7 4 -11
-1 -7 -10 6 -11 -204 -1 -221 4 -5 1 -12 -5 -15 -10 -3 -10 -7 1 -20 7 -10 10
-17 5 -17 -5 0 -8 -55 -6 -123 2 -124 2 -156 -2 -192 -2 -19 30 -150 129 -528
3 -9 7 -26 9 -36 4 -17 48 -186 91 -346 9 -33 18 -67 20 -75 13 -58 27 -117
30 -125 1 -5 3 -13 4 -17 1 -4 9 -31 17 -60 8 -29 19 -70 24 -90 6 -21 15 -56
22 -78 l11 -41 14 38 c7 21 11 44 8 51 -2 6 -1 12 4 12 5 0 12 19 16 43 8 44
11 55 15 60 1 1 3 9 5 17 5 25 22 90 50 195 14 55 28 108 30 118 2 10 7 27 10
37 3 10 8 29 11 42 9 41 12 53 15 53 1 0 3 9 5 20 2 11 8 38 14 60 6 22 13 50
15 62 2 12 6 27 10 33 4 6 8 21 10 33 4 22 103 402 105 402 11 0 14 223 17
1210 1 643 4 1174 7 1181 3 7 2 14 -1 17 -4 5 -7 279 -2 302 1 6 1 15 0 20 -3
14 -3 289 0 300 1 6 1 15 0 20 -3 14 -3 289 0 300 1 6 1 15 0 20 -1 6 -2 348
-2 760 0 544 -3 761 -11 789 -21 70 -107 142 -183 153 -48 7 -256 9 -305 2z"/>
<path d="M6878 9252 c-7 -2 -20 -6 -28 -9 -8 -4 -20 -5 -27 -4 -24 4 -113 -50
-158 -94 -48 -49 -78 -99 -91 -155 -4 -19 -8 -275 -9 -568 l-1 -533 88 3 88 3
1 -32 c1 -43 1 -396 0 -426 -1 -17 -7 -23 -28 -25 -58 -5 -262 -83 -271 -104
-2 -5 -8 -8 -14 -8 -15 0 -126 -81 -179 -132 -25 -23 -63 -65 -85 -93 -21 -27
-41 -52 -44 -55 -3 -3 -17 -27 -30 -55 -14 -27 -31 -57 -37 -66 -7 -8 -14 -24
-16 -35 -2 -10 -10 -32 -16 -49 -7 -16 -14 -38 -16 -48 -2 -9 -6 -21 -10 -26
-10 -18 -18 -115 -18 -231 -1 -88 5 -135 22 -200 22 -84 96 -247 126 -276 8
-9 15 -19 15 -23 0 -4 17 -26 38 -49 57 -63 72 -81 72 -91 0 -5 -13 -38 -29
-73 -16 -35 -39 -85 -50 -113 -12 -27 -26 -59 -31 -70 -36 -78 -63 -142 -65
-150 -2 -5 -17 -40 -34 -78 -17 -37 -31 -69 -31 -72 0 -2 -16 -38 -35 -79 -19
-42 -35 -78 -35 -80 0 -2 -12 -30 -27 -62 -14 -33 -27 -63 -29 -69 -1 -5 -15
-39 -32 -75 -17 -36 -42 -94 -57 -130 -15 -36 -36 -85 -47 -110 -11 -25 -27
-61 -35 -80 -8 -19 -21 -48 -28 -65 -50 -110 -59 -131 -61 -140 -2 -9 -118
-276 -227 -522 -24 -56 -42 -105 -39 -108 3 -3 0 -5 -6 -5 -7 0 -12 -5 -12
-11 0 -9 -39 -102 -122 -289 -20 -47 -44 -101 -58 -135 -19 -46 -39 -93 -64
-148 -14 -32 -26 -60 -26 -63 0 -3 -13 -33 -29 -67 -74 -161 -99 -232 -126
-362 -8 -39 -13 -60 -15 -60 -2 0 -5 -15 -13 -55 -3 -14 -10 -45 -17 -70 -7
-25 -14 -56 -17 -70 -2 -14 -18 -79 -35 -145 -16 -66 -31 -127 -33 -135 -2 -8
-8 -33 -13 -55 -13 -47 -23 -95 -24 -112 -1 -7 -5 -13 -10 -13 -5 0 -7 -4 -4
-8 3 -5 1 -26 -5 -47 -6 -20 -12 -45 -14 -54 -1 -9 -8 -36 -15 -61 -7 -25 -14
-54 -16 -65 -4 -29 -33 -145 -45 -183 -6 -20 -7 -38 -2 -43 9 -9 201 -89 215
-89 4 0 8 5 8 10 0 6 25 46 55 90 30 44 55 85 55 90 0 6 7 13 15 16 8 4 12 10
9 15 -3 5 0 9 5 9 6 0 11 4 11 9 0 5 44 76 98 157 54 82 127 194 162 249 36
55 68 102 72 103 5 2 8 8 8 14 0 5 11 24 25 42 14 18 25 38 25 44 0 7 4 12 9
12 5 0 14 14 21 30 7 17 16 30 21 30 5 0 9 5 9 10 0 6 5 16 10 23 54 64 180
279 180 307 0 5 4 10 8 10 4 0 8 8 9 18 1 9 17 51 36 92 75 163 89 200 84 222
-3 13 -13 50 -22 83 -36 130 -18 300 44 424 66 130 156 221 289 292 62 33 64
36 103 123 21 48 39 94 39 100 0 7 5 17 12 24 6 6 13 17 14 24 2 11 74 181
104 243 23 50 60 136 60 140 0 2 11 28 24 57 60 132 236 543 236 552 0 5 6 17
13 25 8 9 22 39 32 66 10 28 31 79 48 115 16 36 30 71 30 78 0 6 4 12 8 12 7
0 22 34 24 52 0 3 3 10 8 14 4 4 7 16 7 26 0 10 4 18 10 18 5 0 9 3 8 8 -3 15
35 93 44 90 6 -2 21 -29 33 -61 13 -31 33 -76 43 -100 17 -34 94 -214 157
-362 7 -16 23 -52 35 -80 13 -27 38 -86 57 -129 39 -92 53 -123 82 -188 11
-26 21 -50 21 -52 0 -3 13 -33 29 -68 16 -35 41 -92 56 -128 15 -36 38 -89 51
-118 13 -29 35 -79 49 -112 14 -33 36 -84 50 -114 14 -30 25 -57 25 -60 0 -5
20 -51 81 -184 16 -35 29 -66 29 -68 0 -3 11 -30 25 -60 14 -30 25 -56 25 -59
0 -2 16 -39 35 -82 20 -43 41 -89 46 -103 27 -63 38 -88 60 -135 12 -27 24
-54 25 -60 3 -14 98 -227 107 -242 7 -11 20 -7 142 42 11 5 23 7 28 7 4 -1 7
3 7 10 0 6 3 9 6 6 3 -3 49 12 102 34 53 22 102 41 107 42 6 2 21 8 35 13 14
6 61 25 105 43 44 17 91 36 105 42 l26 11 -28 57 c-15 32 -30 69 -34 84 -3 14
-11 26 -17 26 -6 0 -8 3 -5 6 4 3 -7 35 -24 72 -43 98 -56 128 -74 170 -9 20
-29 65 -45 100 -16 35 -29 65 -29 68 0 3 -12 31 -26 62 -29 64 -47 105 -48
112 -1 3 -9 21 -18 40 -9 19 -35 80 -58 135 -23 55 -46 105 -50 110 -5 6 -8
12 -8 15 -1 3 -5 16 -10 30 -5 14 -11 30 -12 35 -1 6 -8 21 -16 35 -30 54
-102 229 -96 234 3 3 0 6 -6 6 -7 0 -12 5 -12 10 0 6 -9 32 -21 58 -12 26 -25
56 -30 67 -4 11 -27 63 -50 115 -23 52 -61 142 -86 200 -25 58 -54 125 -65
150 -23 51 -45 103 -60 140 -6 14 -17 37 -24 51 -7 14 -11 29 -7 33 3 3 2 6
-3 6 -6 0 -16 17 -23 38 -8 20 -26 64 -41 97 -77 172 -94 217 -84 223 41 29
220 282 199 282 -3 0 3 17 14 39 11 21 30 85 42 142 33 163 16 360 -43 499 -8
19 -15 37 -14 40 0 9 -39 75 -49 82 -7 5 -7 8 0 8 6 0 6 3 -1 8 -6 4 -26 30
-44 57 -38 55 -128 147 -187 191 -21 16 -41 33 -44 37 -3 5 -8 8 -10 6 -2 -1
-22 9 -45 23 -56 36 -168 82 -234 98 -30 7 -61 14 -67 16 -10 3 -13 59 -13
239 l0 235 88 0 89 0 -1 548 -1 547 -26 56 c-15 30 -40 70 -57 87 -17 18 -28
32 -24 32 4 0 -13 12 -38 27 -25 15 -48 27 -52 25 -5 -1 -8 3 -8 8 0 6 -3 9
-7 9 -5 -1 -10 0 -13 1 -31 12 -152 27 -172 22z"/>
<path d="M8845 2863 c-22 -8 -56 -20 -75 -26 -19 -6 -37 -14 -40 -17 -3 -4
-26 -13 -52 -21 -27 -7 -48 -17 -48 -21 0 -4 -6 -8 -14 -8 -8 0 -27 -5 -43
-12 -15 -6 -30 -12 -33 -13 -3 -1 -16 -6 -30 -12 -14 -6 -59 -24 -100 -40 -41
-17 -84 -34 -95 -38 -11 -5 -23 -7 -27 -7 -5 1 -8 -3 -8 -9 0 -5 -4 -8 -9 -5
-4 3 -16 0 -25 -7 -18 -13 -20 -8 54 -172 10 -22 49 -114 88 -205 39 -91 80
-185 91 -210 11 -25 19 -47 18 -50 0 -3 7 -18 16 -35 9 -16 35 -73 58 -125 61
-140 62 -144 61 -152 -1 -5 3 -8 9 -8 5 0 7 -4 4 -10 -3 -5 -1 -10 4 -10 6 0
11 -6 11 -14 0 -19 75 -92 126 -122 46 -27 163 -55 197 -48 12 3 38 7 57 10
50 7 134 50 172 88 63 63 80 92 98 165 22 95 7 166 -76 349 -13 29 -24 54 -24
56 0 2 -14 34 -32 72 -17 38 -33 74 -34 79 -3 11 -105 248 -133 310 -11 22
-26 56 -34 75 -8 19 -24 55 -34 80 -23 52 -36 83 -37 90 -1 3 -6 12 -11 22 -9
15 -14 15 -50 1z"/>
</g>
</svg>
